<svg width="117" height="119" viewBox="0 0 117 119" fill="none" xmlns="http://www.w3.org/2000/svg">
<ellipse cx="58.5" cy="59.5" rx="58.5" ry="59.5" fill="#0E51AC"/>
<path d="M58.5 51.8889C60.1087 51.8889 61.7016 51.567 63.1879 50.9416C64.6741 50.3162 66.0245 49.3996 67.1621 48.244C68.2996 47.0884 69.2019 45.7166 69.8175 44.2067C70.4331 42.6969 70.75 41.0787 70.75 39.4444C70.75 37.8102 70.4331 36.192 69.8175 34.6822C69.2019 33.1723 68.2996 31.8005 67.1621 30.6449C66.0245 29.4893 64.6741 28.5727 63.1879 27.9473C61.7016 27.3219 60.1087 27 58.5 27C55.2511 27 52.1353 28.3111 49.8379 30.6449C47.5406 32.9787 46.25 36.144 46.25 39.4444C46.25 42.7449 47.5406 45.9102 49.8379 48.244C52.1353 50.5778 55.2511 51.8889 58.5 51.8889ZM27 88.8667V91H90V88.8667C90 80.9022 90 76.92 88.474 73.8764C87.1318 71.2005 84.9902 69.0248 82.356 67.6613C79.36 66.1111 75.44 66.1111 67.6 66.1111H49.4C41.56 66.1111 37.64 66.1111 34.644 67.6613C32.0098 69.0248 29.8682 71.2005 28.526 73.8764C27 76.92 27 80.9022 27 88.8667Z" fill="black" stroke="black" stroke-width="2" stroke-linecap="round" stroke-linejoin="round"/>
</svg>
